<svg version="1.1" id="Layer_1" xmlns="http://www.w3.org/2000/svg" x="0" y="0" viewBox="0 0 128 128" style="enable-background:new 0 0 128 128" xml:space="preserve"><style>.st0{fill:#fff}.st1{fill:#4cbe00}</style><path class="st0" d="m33.6 30.1 67.6 67.6c1.8 1.8 1.8 4.6 0 6.4L84 121.3c-1.8 1.8-4.6 1.8-6.4 0L10 53.7c-1.8-1.8-1.8-4.6 0-6.4l17.2-17.2c1.8-1.8 4.7-1.8 6.4 0z"/><path class="st1" d="M80.9 123.6c-1.4 0-2.8-.5-3.9-1.6L9.3 54.4c-2.1-2.1-2.1-5.6 0-7.8l17.2-17.2c1-1 2.4-1.6 3.9-1.6s2.9.6 3.9 1.6L102 97c1 1 1.6 2.4 1.6 3.9s-.6 2.8-1.6 3.9L84.8 122c-1.1 1.1-2.5 1.6-3.9 1.6zM30.4 29.8c-.9 0-1.8.4-2.5 1L10.8 48c-1.4 1.4-1.4 3.6 0 5l67.6 67.6c1.4 1.4 3.6 1.4 4.9 0l17.2-17.2c.7-.7 1-1.5 1-2.5 0-.9-.4-1.8-1-2.5L32.9 30.8c-.7-.7-1.5-1-2.5-1z"/><path class="st0" d="M43.3 50.2 81.2 88c1 1 1 2.6 0 3.6l-9.6 9.6c-1 1-2.6 1-3.6 0L30.1 63.4c-1-1-1-2.6 0-3.6l9.6-9.6c1-1 2.6-1 3.6 0z"/><path class="st1" d="M69.8 103c-.9 0-1.8-.4-2.5-1L29.4 64.1c-1.4-1.4-1.4-3.6 0-5l9.6-9.6c1.3-1.3 3.6-1.3 5 0l37.9 37.9c1.4 1.4 1.4 3.6 0 5l-9.6 9.6c-.7.6-1.6 1-2.5 1zM41.5 50.4c-.4 0-.8.2-1.1.4l-9.6 9.6c-.6.6-.6 1.6 0 2.1l37.9 37.9c.6.6 1.6.6 2.1 0l9.6-9.6c.6-.6.6-1.6 0-2.1L42.6 50.9c-.3-.3-.7-.5-1.1-.5z"/><path class="st0" d="m33.3 40.1 1.6 1.6c.9.9.9 2.4 0 3.3L25 55c-.9.9-2.4.9-3.3 0l-1.6-1.6c-.9-.9-.9-2.4 0-3.3l9.9-9.9c.9-1 2.4-1 3.3-.1z"/><path class="st1" d="M23.4 56.6c-.9 0-1.7-.3-2.4-1L19.4 54a3.32 3.32 0 0 1 0-4.7l9.9-9.9c1.3-1.3 3.5-1.3 4.7 0l1.6 1.6c1.3 1.3 1.3 3.4 0 4.7l-9.9 9.9c-.6.7-1.5 1-2.3 1zm8.2-16.2c-.4 0-.7.1-.9.4l-9.9 9.9c-.5.5-.5 1.4 0 1.9l1.6 1.6c.5.5 1.4.5 1.9 0l9.9-9.9c.5-.5.5-1.4 0-1.9l-1.6-1.6c-.3-.2-.6-.4-1-.4z"/><path class="st0" d="m89.7 96.6 1.6 1.6c.9.9.9 2.4 0 3.3l-9.9 9.9c-.9.9-2.4.9-3.3 0l-1.6-1.6c-.9-.9-.9-2.4 0-3.3l9.9-9.9c.9-1 2.4-1 3.3 0z"/><path class="st1" d="M79.8 113.1c-.9 0-1.7-.3-2.4-1l-1.6-1.6a3.32 3.32 0 0 1 0-4.7l9.9-9.9c1.3-1.3 3.4-1.3 4.7 0l1.6 1.6c.6.6 1 1.5 1 2.4s-.3 1.7-1 2.4l-9.9 9.9c-.6.5-1.5.9-2.3.9zm8.3-16.2c-.3 0-.7.1-.9.4l-9.9 9.9c-.5.5-.5 1.4 0 1.9l1.6 1.6c.5.5 1.4.5 1.9 0l9.9-9.9c.3-.3.4-.6.4-.9 0-.4-.1-.7-.4-.9L89 97.3c-.3-.3-.6-.4-.9-.4z"/><path class="st0" d="M58.7 79c0 1.7-.7 3.3-1.8 4.5L17 123.3c-2.5 2.5-6.5 2.5-9 0s-2.5-6.5 0-9l39.8-39.8c2.5-2.5 6.5-2.5 9 0 1.2 1.2 1.9 2.8 1.9 4.5z"/><path class="st1" d="M12.6 126.1c-1.9 0-3.8-.7-5.2-2.1-2.9-2.9-2.9-7.5 0-10.4l39.8-39.8c2.9-2.9 7.5-2.9 10.4 0 1.4 1.4 2.2 3.3 2.2 5.2 0 2-.8 3.8-2.1 5.2l-40 39.8c-1.4 1.4-3.3 2.1-5.1 2.1zm39.8-52.4s-.1 0 0 0c-1.4 0-2.8.6-3.8 1.6L8.8 115c-2.1 2.1-2.1 5.5 0 7.5 2.1 2.1 5.5 2.1 7.5 0l39.8-39.8c1-1 1.6-2.3 1.6-3.8 0-1.4-.5-2.8-1.6-3.8-1-.9-2.3-1.4-3.7-1.4zM33.6 31.1c-.3 0-.5-.1-.7-.3-.4-.4-.4-1 0-1.4l3.3-3.3c.4-.4 1-.4 1.4 0s.4 1 0 1.4l-3.3 3.3c-.2.2-.4.3-.7.3zM36.3 33.8c-.3 0-.5-.1-.7-.3-.4-.4-.4-1 0-1.4l3.3-3.3c.4-.4 1-.4 1.4 0s.4 1 0 1.4L37 33.5c-.2.2-.4.3-.7.3zM39 36.5c-.3 0-.5-.1-.7-.3-.4-.4-.4-1 0-1.4l3.3-3.3c.4-.4 1-.4 1.4 0s.4 1 0 1.4l-3.3 3.3c-.2.2-.4.3-.7.3zM41.7 39.2c-.3 0-.5-.1-.7-.3-.4-.4-.4-1 0-1.4l3.3-3.3c.4-.4 1-.4 1.4 0s.4 1 0 1.4l-3.3 3.3c-.1.2-.4.3-.7.3zM44.5 41.9c-.3 0-.5-.1-.7-.3-.4-.4-.4-1 0-1.4l3.3-3.3c.4-.4 1-.4 1.4 0s.4 1 0 1.4l-3.3 3.3c-.2.2-.5.3-.7.3zM47.2 44.6c-.3 0-.5-.1-.7-.3-.4-.4-.4-1 0-1.4l3.3-3.3c.4-.4 1-.4 1.4 0s.4 1 0 1.4l-3.3 3.3c-.2.2-.5.3-.7.3zM49.9 47.4c-.3 0-.5-.1-.7-.3-.4-.4-.4-1 0-1.4l3.3-3.3c.4-.4 1-.4 1.4 0s.4 1 0 1.4l-3.3 3.3c-.2.2-.5.3-.7.3zM52.6 50.1c-.3 0-.5-.1-.7-.3-.4-.4-.4-1 0-1.4l3.3-3.3c.4-.4 1-.4 1.4 0s.4 1 0 1.4l-3.3 3.3c-.2.2-.5.3-.7.3zM55.3 52.8c-.3 0-.5-.1-.7-.3-.4-.4-.4-1 0-1.4l3.3-3.3c.4-.4 1-.4 1.4 0s.4 1 0 1.4L56 52.5c-.2.2-.4.3-.7.3zM58 55.5c-.3 0-.5-.1-.7-.3-.4-.4-.4-1 0-1.4l3.3-3.3c.4-.4 1-.4 1.4 0s.4 1 0 1.4l-3.3 3.3c-.2.2-.4.3-.7.3zM60.7 58.2c-.3 0-.5-.1-.7-.3-.4-.4-.4-1 0-1.4l3.3-3.3c.4-.4 1-.4 1.4 0s.4 1 0 1.4l-3.3 3.3c-.2.2-.4.3-.7.3zM63.4 60.9c-.3 0-.5-.1-.7-.3-.4-.4-.4-1 0-1.4l3.3-3.3c.4-.4 1-.4 1.4 0s.4 1 0 1.4l-3.3 3.3c-.2.2-.4.3-.7.3zM66.1 63.6c-.3 0-.5-.1-.7-.3-.4-.4-.4-1 0-1.4l3.3-3.3c.4-.4 1-.4 1.4 0s.4 1 0 1.4l-3.3 3.3c-.1.2-.4.3-.7.3zM68.9 66.3c-.3 0-.5-.1-.7-.3-.4-.4-.4-1 0-1.4l3.3-3.3c.4-.4 1-.4 1.4 0s.4 1 0 1.4L69.6 66c-.2.2-.5.3-.7.3zM71.6 69c-.3 0-.5-.1-.7-.3-.4-.4-.4-1 0-1.4l3.3-3.3c.4-.4 1-.4 1.4 0 .4.4.4 1 0 1.4l-3.3 3.3c-.2.2-.5.3-.7.3zM74.3 71.7c-.3 0-.5-.1-.7-.3-.4-.4-.4-1 0-1.4l3.3-3.3c.4-.4 1-.4 1.4 0s.4 1 0 1.4L75 71.4c-.2.2-.5.3-.7.3zM77 74.5c-.3 0-.5-.1-.7-.3-.4-.4-.4-1 0-1.4l3.3-3.3c.4-.4 1-.4 1.4 0s.4 1 0 1.4l-3.3 3.3c-.2.2-.5.3-.7.3zM79.7 77.2c-.3 0-.5-.1-.7-.3-.4-.4-.4-1 0-1.4l3.3-3.3c.4-.4 1-.4 1.4 0s.4 1 0 1.4l-3.3 3.3c-.2.2-.5.3-.7.3zM82.4 79.9c-.3 0-.5-.1-.7-.3-.4-.4-.4-1 0-1.4l3.3-3.3c.4-.4 1-.4 1.4 0s.4 1 0 1.4l-3.3 3.3c-.2.2-.4.3-.7.3zM85.1 82.6c-.3 0-.5-.1-.7-.3-.4-.4-.4-1 0-1.4l3.3-3.3c.4-.4 1-.4 1.4 0s.4 1 0 1.4l-3.3 3.3c-.2.2-.4.3-.7.3zM87.8 85.3c-.3 0-.5-.1-.7-.3-.4-.4-.4-1 0-1.4l3.3-3.3c.4-.4 1-.4 1.4 0s.4 1 0 1.4L88.5 85c-.2.2-.4.3-.7.3zM90.5 88c-.3 0-.5-.1-.7-.3-.4-.4-.4-1 0-1.4l3.3-3.3c.4-.4 1-.4 1.4 0s.4 1 0 1.4l-3.3 3.3c-.2.2-.4.3-.7.3zM93.2 90.7c-.3 0-.5-.1-.7-.3-.4-.4-.4-1 0-1.4l3.3-3.3c.4-.4 1-.4 1.4 0s.4 1 0 1.4l-3.3 3.3c-.1.2-.4.3-.7.3zM96 93.4c-.3 0-.5-.1-.7-.3-.4-.4-.4-1 0-1.4l3.3-3.3c.4-.4 1-.4 1.4 0s.4 1 0 1.4l-3.3 3.3c-.2.2-.5.3-.7.3zM98.7 96.1c-.3 0-.5-.1-.7-.3-.4-.4-.4-1 0-1.4l3.3-3.3c.4-.4 1-.4 1.4 0s.4 1 0 1.4l-3.3 3.3c-.2.2-.5.3-.7.3zM101.4 98.8c-.3 0-.5-.1-.7-.3-.4-.4-.4-1 0-1.4l3.3-3.3c.4-.4 1-.4 1.4 0s.4 1 0 1.4l-3.3 3.3c-.2.3-.5.3-.7.3zM72.1 21.5c-1.6 0-5.5-.1-6.7-1.3-.4-.4-.4-1 0-1.4s1-.4 1.4-.1c.4.4 2.9.7 5.3.7.6 0 1 .4 1 1s-.4 1.1-1 1.1z"/><path class="st1" d="M68.6 24c-.6 0-1-.4-1-1 0-1.6.1-5.5 1.3-6.7.4-.4 1-.4 1.4 0s.4 1 .1 1.4c-.4.4-.7 2.9-.7 5.3-.1.6-.5 1-1.1 1zM119.3 113c-1.6 0-5.5-.1-6.7-1.3-.4-.4-.4-1 0-1.4s1-.4 1.4-.1c.4.4 2.9.7 5.3.7.6 0 1 .4 1 1s-.5 1.1-1 1.1z"/><path class="st1" d="M115.8 115.5c-.6 0-1-.4-1-1 0-1.6.1-5.5 1.3-6.7.4-.4 1-.4 1.4 0s.4 1 .1 1.4c-.4.4-.7 2.9-.7 5.3-.1.6-.6 1-1.1 1zM104.7 55.5c-.4 0-.8-.3-1-.7-.2-.5.1-1.1.7-1.3l5.3-1.6c.5-.2 1.1.1 1.3.7s-.1 1.1-.7 1.3l-5.3 1.6h-.3zM48.8 120.8c-.3 0-.6-.1-.8-.4l-4.4-6c-.3-.4-.2-1.1.2-1.4s1.1-.2 1.4.2l4.4 6c.3.4.2 1.1-.2 1.4-.2.1-.4.2-.6.2zM103 18c-.2 0-.5-.1-.7-.3-.4-.4-.4-1 0-1.4.2-.2 5.2-5.5 10.5-3.2 2.5 1 5.9-.3 7.9-2.1 1.4-1.2 1.7-2.1 1.7-2.3-.1-.5.2-1.1.8-1.2.5-.1 1.1.2 1.2.8.4 1.7-1.5 3.6-2.4 4.3-2.6 2.2-6.7 3.8-10 2.4-4.1-1.7-8.3 2.7-8.3 2.8-.1.1-.4.2-.7.2zM18.9 21.5c-.1 0-.2 0-.4-.1-1.2-.4-1.6-2.1-1.7-3-.3-2.3.4-5.3 2.5-6.7 2.2-1.5 1.4-5.2 1.3-5.2-.1-.5.2-1.1.7-1.2s1.1.2 1.2.7c0 .2 1.2 5.1-2.2 7.3-.9.6-1.5 1.9-1.6 3.6-.1 1.5.3 2.5.5 2.7.5.2.7.7.6 1.3-.1.3-.5.6-.9.6z"/></svg>