<svg version="1.1" id="Layer_1" xmlns="http://www.w3.org/2000/svg" x="0" y="0" viewBox="0 0 128 128" style="enable-background:new 0 0 128 128" xml:space="preserve"><style>.st1,.st2{fill:none;stroke:#4cbe00;stroke-width:2;stroke-linecap:round;stroke-linejoin:round}.st2{stroke:#eff4f3}</style><path d="M111.7 87H69.6s-11.3-2.8-11.3-14.1c0-.8-.1-1.7-.3-2.5.2-2.2.3-4.4.3-6.7C58.3 41.2 48.2 23 35.6 23S13 41.2 13 63.7s10.2 40.7 22.7 40.7h36.2c-3.5 0-6.3-2.8-6.3-6.3 0-1.7.7-3.3 1.8-4.4 1.1-1.1 2.7-1.8 4.5-1.8h37.4c3.5 0 6.3 2.8 6.3 6.3 0 1.7-.7 3.3-1.8 4.5-1.1 1.1-2.7 1.8-4.5 1.8h2.3s8.7-.8 8.7-8.7c.1-8-8.6-8.8-8.6-8.8zm-66.5-8.4c-.3.1-.6.1-.9.1-4.3 0-7.8-6.2-7.8-13.9s3.5-13.9 7.8-13.9c.7 0 1.3.1 1.9.4 1.4 4 2.1 8.2 2.1 12.5.1 5-1 10.1-3.1 14.8z" style="fill:#fff;stroke:#4cbe00;stroke-width:2;stroke-linecap:round;stroke-linejoin:round"/><path class="st1" d="m75.9 98.2 20.8 22.6M97 113.7l-.3 7.2-7-.3M98.9 99.7l14.8 16.7M114 109.3l-.3 7.1-7-.3"/><ellipse class="st1" cx="35.7" cy="63.7" rx="12.7" ry="22.8"/><path class="st1" d="M48.3 63.7c.1 5.1-1 10.2-3.1 14.9-2.3 4.8-5.8 7.9-9.6 7.9-7 0-12.7-10.2-12.7-22.8s5.7-22.8 12.7-22.8c4.4 0 8.3 4.1 10.6 10.3 1.5 4 2.2 8.2 2.1 12.5zM58.3 72.9c.4-3.1 0-5.9 0-9.2C58.3 41.2 48.1 23 35.6 23h46.9c.8 0 1.5.1 2.3.2 11.4 2.1 20.4 19.4 20.4 40.5 0 3.1-.2 6.1-.6 9.2M111.7 87H69.6c-4.8 0-8.7 3.9-8.7 8.7v0c0 4.8 3.9 8.7 8.7 8.7h42.1c4.8 0 8.7-3.9 8.7-8.7v0c0-4.8-3.9-8.7-8.7-8.7z"/><path class="st1" d="M114.3 87H69.6s-11.2-2.8-11.2-14.2h46.5c-.1 11.5 9.4 14.2 9.4 14.2z"/><path class="st2" d="M40.1 66.5C15.4 58.5 1.9 31.9 10 7.3c0 0 0 0 0 0"/><path class="st2" d="m33.4 54.4 7.3 12L29 73.5"/></svg>