<svg version="1.1" id="Layer_1" xmlns="http://www.w3.org/2000/svg" x="0" y="0" viewBox="0 0 128 128" style="enable-background:new 0 0 128 128" xml:space="preserve"><style>.st0{fill:#fff}.st1{fill:#4cbe00}</style><path class="st0" d="M125.3 95.4c-2.3 9.6-9.9 17.2-19.6 19.2h-.2c-6 1.2-12.7.5-17.5-3.3-6.2-4.9-8.2-13.8-14.7-18.2-5.7-4-13.3-3.4-20.3-3.4S38 88 34.8 81.8c-3.7-7.3 1.4-16.1-.1-24.1-1-5.3-4.7-9.6-8.9-13s-8.8-6.1-12.7-9.8l-1.5-1.5c-4.5-5-.1-13.1 4.1-18.4 5.5-6.9 16-10 23.2-5.2 6.8 4.6 8.5 14 14.3 19.9 6.1 6.2 15.4 7.3 24 8.4s18 3 23.1 10c2.9 4 4 9.1 7.2 12.8 3.6 4.2 9.2 6 13.1 9.8 4.9 4.8 6.5 12.2 5.7 19-.2 2-.6 3.9-1 5.7z"/><path class="st0" d="M15.2 118.4c-1.5 0-5-.1-6.1-1.2-.4-.4-.4-1 0-1.4.4-.4 1-.4 1.4 0 .4.3 2.6.6 4.8.6.6 0 1 .4 1 1s-.5 1-1.1 1z"/><path class="st0" d="M12.1 120.7c-.6 0-1-.4-1-1 0-1.5.1-5 1.2-6.1.4-.4 1-.4 1.4 0 .4.4.4 1 0 1.4-.3.4-.6 2.6-.6 4.8 0 .4-.5.9-1 .9zM43 123.8c-.2 0-.5-.1-.7-.3-.4-.4-.4-1 0-1.4.2-.2 4.8-5 9.7-3 2.1.9 4.9-.2 6.8-1.6 1.4-1.1 1.8-2 1.8-2.2-.1-.5.3-1.1.8-1.2.5-.1 1 .2 1.1.7.4 1.6-1.4 3.3-2.2 4-2.4 2-6.1 3.4-9.2 2.2-3.6-1.5-7.4 2.4-7.4 2.5-.2.2-.5.3-.7.3zM12.1 84.4c-.1 0-.2 0-.3-.1-1.1-.4-1.5-1.9-1.6-2.8-.3-2.2.3-4.9 2.3-6.2 1.9-1.3 1.2-4.6 1.2-4.6-.1-.5.2-1.1.7-1.2.5-.1 1.1.2 1.2.7 0 .2 1.1 4.7-2 6.7-.8.5-1.3 1.6-1.4 3-.1 1.4.2 2.3.4 2.5.5.2.7.8.5 1.3-.2.4-.6.7-1 .7zm.5-1.9z"/><path class="st1" d="M76.2 46.5v12.4c0 .5-.5 1-1 1s-1-.5-1-1V48.8l-37 37c-.2.1-.5.2-.7.2-.3 0-.5-.1-.7-.3-.4-.4-.4-1 0-1.4l36.8-36.8H62.5c-.6 0-1-.5-1-1s.4-1 1-1h12.7c.3 0 .5.1.7.3.2.1.3.4.3.7zM102.7 52.2c-.2-.2-.4-.3-.7-.3h-.5c.4-.1.9-.1 1.2.3z"/><path class="st1" d="M118 39.7v12.4c0 .5-.4 1-1 1-.5 0-1-.5-1-1V42L79 79c-.2.2-.4.3-.7.3-.3 0-.5-.1-.7-.3-.4-.4-.4-1 0-1.4l36.8-36.8h-10.2c-.5 0-1-.5-1-1s.5-1 1-1H117c.3 0 .5.1.7.3l.1.1c.1.1.2.3.2.5zM69.3 17.4c-.2-.1-.3-.2-.6-.2h-.5c.4-.1.8 0 1.1.2zM64 12.5v12.4c0 .5-.4 1-1 1s-1-.5-1-1V14.7l-37 37c-.2.2-.4.3-.7.3-.3 0-.5-.1-.7-.3-.4-.4-.4-1 0-1.4l36.8-36.8H50.3c-.5 0-1-.4-1-1 0-.5.5-1 1-1H63c.2 0 .4.1.6.2h.1c.2.2.3.5.3.8zM91.5 124.8c-4.9 0-9.4-1.4-12.8-4.1-3.1-2.4-5.2-5.8-7.2-9.1-2.2-3.6-4.2-6.9-7.5-9.1-4.8-3.3-11.2-3.3-17.3-3.2h-2.4c-5.5 0-15.3-1.1-19.1-8.5-2.3-4.4-1.5-9.4-.7-14.1.6-3.4 1.1-7 .5-10.2-.8-4.3-3.7-8.5-8.5-12.4-1.7-1.3-3.4-2.6-5.1-3.8-2.6-1.8-5.3-3.8-7.6-6-.6-.5-1.1-1.1-1.6-1.6-.4-.4-.3-1 .1-1.4.4-.4 1-.3 1.4.1.4.5.9 1 1.4 1.5 2.3 2.2 4.9 4 7.4 5.8 1.7 1.2 3.5 2.5 5.2 3.9 5.2 4.3 8.3 8.9 9.3 13.6.7 3.6.1 7.3-.5 10.9-.8 4.6-1.5 9 .5 12.9 3.3 6.4 12.3 7.4 17.3 7.4h2.4c6.4-.1 13.1-.1 18.5 3.6 3.6 2.4 5.8 6.1 8 9.7 2 3.3 3.9 6.3 6.7 8.6 4.1 3.3 10.2 4.4 16.7 3.1 5.3-1.1 10.4-3.5 14.7-5.8.5-.3 1.1-.1 1.3.4.3.5.1 1.1-.4 1.3-4.4 2.3-9.7 4.9-15.2 6-1.9.3-3.7.5-5.5.5z"/></svg>