<svg version="1.1" id="Layer_1" xmlns="http://www.w3.org/2000/svg" x="0" y="0" viewBox="0 0 128 128" style="enable-background:new 0 0 128 128" xml:space="preserve"><style>.st0,.st1,.st2,.st3{stroke-width:2;stroke-linecap:round;stroke-linejoin:round}.st0{fill:#fff;stroke:#4cbe00}.st1,.st2,.st3{fill:none}.st1{stroke:#fff;stroke-miterlimit:10}.st2,.st3{stroke:#4cbe00}.st3{fill:#fff;stroke:#eff4f3}</style><path class="st0" d="M114.1 81.3c-3.4 1.2-6.9 4.5-9 9.2-1.5 3.2-2.1 6.9-1.6 10.4.3 1.9 0 3.8-.8 5.6l-3.3 7.4c-.1.2-.2.3-.3.4-2.3 3.1-12.2 2-22.8-2.8s-18-11.4-17.2-15.2c0-.2.1-.3.2-.5l3.1-7c.9-1.9 2.4-3.5 4.2-4.6 3-2 5.3-4.8 6.7-8.1 2.2-4.8 2.3-9.8.8-13.2l4.1-9c.1-.1.1-.3.2-.4 2.2-3.2 12.2-2 22.8 2.8s18.1 11.5 17.2 15.2c0 .2-.1.3-.2.4l-4.1 9.4z"/><path class="st0" d="M111 88.2c-3.4 1.2-6.9 4.5-9 9.2s-2.3 9.4-.9 12.8l-4.8 10.6c-.1.2-.2.3-.3.4-2.3 3.1-12.2 2-22.8-2.8S55.2 107 56 103.2c0-.2.1-.3.2-.5l4.7-10.3c3.6-1.1 7.2-4.5 9.4-9.3s2.3-9.8.8-13.2l4.1-9c.1-.1.1-.3.2-.4 2.2-3.2 12.2-2 22.8 2.8s18.1 11.5 17.2 15.2c0 .2-.1.3-.2.4l-4.2 9.3z"/><path class="st1" d="M23.8 20c1.5-1.9 3.4-3.3 5.6-4.2 4.9-1.8 10.4.6 12.5 5.4M26 67.9c-2.2-.6-4.2-1.6-6-3-4.5-3.7-4.8-9.1-4.9-14-.1-3.3 0-6.6.4-9.9M103.3 31.1c-3.9-4-9.7-4.7-14.7-2.9s-9.2 5.6-12.8 9.9-6.8 9.1-10.6 13.3C57.9 60 47.9 65.9 36.8 68.3M107.2 51.1c.1-.6.2-1.1.3-1.7.6-3.6.5-7.3-.3-10.8"/><circle class="st2" cx="69.7" cy="17" r="7.1"/><circle class="st2" cx="14.9" cy="28.4" r="5.5"/><circle class="st2" cx="114.3" cy="35.8" r="2.7"/><circle class="st2" cx="29" cy="52.1" r="4.4"/><circle class="st3" cx="63.4" cy="33.1" r="2.7"/><circle class="st2" cx="44.1" cy="81.3" r="5.8"/><circle class="st3" cx="77.8" cy="103" r="1"/><circle class="st3" cx="94.6" cy="87.1" r="1"/><circle class="st3" cx="85.7" cy="71.8" r="1"/></svg>