<svg version="1.1" id="Layer_1" xmlns="http://www.w3.org/2000/svg" x="0" y="0" viewBox="0 0 128 128" style="enable-background:new 0 0 128 128" xml:space="preserve"><style>.st0,.st1{fill:#fff;stroke:#4cbe00;stroke-width:2;stroke-linecap:round;stroke-linejoin:round}.st1{fill:none}</style><path class="st0" d="m99.1 33.2-67.6 67.6c-1.8 1.8-4.6 1.8-6.4 0L7.8 83.6C6 81.8 6 79 7.8 77.2L75.5 9.6c1.8-1.8 4.6-1.8 6.4 0l17.2 17.2c1.7 1.8 1.7 4.6 0 6.4z"/><path class="st0" d="M79 42.9 41.1 80.8c-1 1-2.6 1-3.6 0l-9.6-9.6c-1-1-1-2.6 0-3.6l37.9-37.9c1-1 2.6-1 3.6 0l9.6 9.6c1 1 1 2.6 0 3.6zM89 32.8l-1.6 1.6c-.9.9-2.4.9-3.3 0l-9.9-9.9c-.9-.9-.9-2.4 0-3.3l1.6-1.6c.9-.9 2.4-.9 3.3 0l9.9 9.9c.9 1 .9 2.4 0 3.3zM32.6 89.3 31 90.9c-.9.9-2.4.9-3.3 0L17.8 81c-.9-.9-.9-2.4 0-3.3l1.6-1.6c.9-.9 2.4-.9 3.3 0l9.9 9.9c.9.9.9 2.4 0 3.3z"/><path class="st1" d="m99.1 33.2 3.3 3.3M96.4 35.9l3.3 3.3M93.7 38.6l3.2 3.3M90.9 41.3l3.3 3.3M88.2 44l3.3 3.3M85.5 46.7l3.3 3.3M82.8 49.5l3.3 3.3M80.1 52.2l3.3 3.3M77.4 54.9l3.3 3.3M74.7 57.6l3.3 3.3M72 60.3l3.3 3.3M69.3 63l3.3 3.3M66.5 65.7l3.3 3.3M63.8 68.4l3.3 3.3M61.1 71.1l3.3 3.3M58.4 73.8l3.3 3.3M55.7 76.6l3.3 3.3M53 79.3l3.3 3.3M50.3 82l3.3 3.3M47.6 84.7l3.3 3.3M44.9 87.4l3.3 3.3M42.1 90.1l3.3 3.3M39.4 92.8l3.3 3.3M36.7 95.5l3.3 3.3M34 98.2l3.3 3.3M31.3 101l3.3 3.3M97.3 54.2 119.1 76M119 68.8V76h-6.9M59 93.4l21.7 21.7M80.7 108v7.1h-7M94.1 90.1l21.8 21.7M115.8 104.7v7.1h-6.9M117.8 63c3-2 5.6-4.4 7.8-7.2M75.2 101.1c1-4.8.8-10.2.8-15.2.1-7.7 1.9-16.6 8.7-20.1 4.6-2.4 9.8-1.5 15.1-.7M52.2 124.4c3.9-4.9 10-7.4 15-11.1"/><path d="M50 58.1c-1.7 0-3.3-.7-4.5-1.8L5.7 16.4c-2.5-2.5-2.5-6.5 0-9s6.5-2.5 9 0l39.8 39.8c2.5 2.5 2.5 6.5 0 9-1.2 1.2-2.8 1.9-4.5 1.9z" style="fill:#fff"/><path d="M2.9 12c0-1.9.7-3.8 2.1-5.2 2.9-2.9 7.5-2.9 10.4 0l39.8 39.8c2.9 2.9 2.9 7.5 0 10.4-1.4 1.4-3.3 2.2-5.2 2.2-2 0-3.8-.8-5.2-2.1L5 17.1c-1.4-1.4-2.1-3.3-2.1-5.1zm52.4 39.8s0-.1 0 0c0-1.4-.6-2.8-1.6-3.8L14 8.2c-2.1-2.1-5.5-2.1-7.5 0-2.1 2.1-2.1 5.5 0 7.5l39.8 39.8c1 1 2.3 1.6 3.8 1.6 1.4 0 2.8-.5 3.8-1.6.9-1 1.4-2.3 1.4-3.7z" style="fill:#4cbe00"/></svg>