<svg id="Layer_1" data-name="Layer 1" xmlns="http://www.w3.org/2000/svg" viewBox="0 0 128 128"><defs><style>.cls-1,.cls-3{fill:none;stroke:#4cbe00;stroke-linecap:round;stroke-linejoin:round;stroke-width:2px}.cls-3{fill:#fff}</style></defs><path class="cls-1" d="M18.79 64a47 47 0 1 1 15.4 34.8"/><path d="M18.5 28.32A59.24 59.24 0 1 1 7.58 75" style="stroke:#eff4f3;stroke-linecap:round;stroke-linejoin:round;stroke-width:2px;fill:none"/><path class="cls-1" d="m28.18 53.9-9.15 10.65-10.37-8.92"/><rect class="cls-3" x="35.12" y="54.66" width="64.09" height="20.41" rx="2.76" ry="2.76" transform="rotate(-150.76 67.166 64.863)"/><rect class="cls-3" x="36.01" y="55.31" width="64.09" height="15.95" rx="2.44" ry="2.44" transform="rotate(-150.76 68.052 63.286)"/><rect class="cls-3" x="52.48" y="50.46" width="35.89" height="17.18" rx="1.89" ry="1.89" transform="rotate(-150.76 70.42 59.053)"/><rect class="cls-3" x="55.72" y="54.15" width="27.48" height="13.24" rx="1.45" ry="1.45" transform="rotate(-150.76 69.462 60.766)"/><path class="cls-3" d="M86.49 88.01 85.1 90.5M82.39 85.72 81 88.21M78.3 83.42l-1.4 2.5M74.2 81.13l-1.39 2.49M70.11 78.84l-1.4 2.49M66.01 76.54l-1.4 2.5M61.91 74.25l-1.39 2.49M57.82 71.96l-1.4 2.49M53.72 69.66l-1.4 2.5M49.62 67.37l-1.39 2.49M45.53 65.08l-1.4 2.49M41.43 62.78l-1.39 2.5M37.33 60.49l-1.39 2.49"/></svg>